<svg version="1.1" xmlns="http://www.w3.org/2000/svg" xmlns:xlink="http://www.w3.org/1999/xlink" width="1268" height="1284"><desc>title%20Authentication%20flow%0A%0Aactor%20Client%0A%0Aparticipantgroup%20%23C4DFD1%20Account%20%0Aparticipant%20Account%20service%0Adatabase%20DB%0Aend%20%0A%0Aparticipantgroup%20%23F9D2FF%20Chat%20Management%0Acontrol%20Auth%20Interceptor%0Aparticipant%20Chat%20service%0Aend%20%0A%0A%0A%23%20todo%3A%20%D0%BF%D0%BE%D1%81%D0%BC%D0%BE%D1%82%D1%80%D0%B5%D1%82%D1%8C%20%D0%BE%D0%B1%D0%BE%D0%B7%D0%BD%D0%B0%D1%87%D0%B5%D0%BD%D0%B8%D1%8F%20'relations'%20(%D1%82%D0%B8%D0%BF%D0%B0%20%D0%BB%D0%B8%D0%BD%D0%B8%D0%B9)%0A%0A%23%20Client-%3EAccount%3ACreateUser(username%2C%20password)%0A%23%20Client%3C-Account%3AOK%0A%0AClient-%3EAccount%20service%3A%20Authenticate%20(username%2C%20password)%0A%0AAccount%20service-%3EDB%3A%20Generate%20and%20store%20Refresh%20Token%0A%0AClient%3C-Account%20service%3A%20Access%20Token%2C%20Refresh%20Token%20(AT%2C%20RT)%0A%0A%0AClient-%3EAuth%20Interceptor%3A%20ProcessRequest%20(Access%20Token)%0A%0Anote%20over%20Auth%20Interceptor%3A%20Validate%20AT%20with%20(super)secret%20key%0AAuth%20Interceptor-%3EAuth%20Interceptor%3A%20Validate%20AT%0A%0Aalt%20%23FFEFD2%20validation%20succeeded%0Anote%20over%20Auth%20Interceptor%3A%20Retrieve%20userID%0AAuth%20Interceptor-%3EChat%20service%3A%20ProcessRequest%20(userID)%0A%0Aelse%20token%20expired%0AAuth%20Interceptor-%3EClient%3A%20Token%20expired%0AClient-%3EAccount%20service%3A%20Refresh(RT)%0AAccount%20service%3C-%3EDB%3A%20Get%20token%20from%20DB%0AAccount%20service-%3EAccount%20service%3A%20Compare%20tokens%0AAccount%20service-%3EClient%3A%20New%20pair%20Access%20Token%2C%20Refresh%20Token%0A%0Aelse%20invalid%20token%0AAuth%20Interceptor-%3EClient%3A%20Unauthorized%0Aend%20%0A</desc><defs/><g><g/><g/><g/><g/><g/><g/><g/><g/><g/><g/><g/><g/><g/><g/><g/><g/><g><rect fill="white" stroke="none" x="0" y="0" width="1268" height="1284"/></g><g><text fill="black" stroke="none" font-family="sans-serif" font-size="16.5pt" font-style="normal" font-weight="normal" text-decoration="normal" x="541.6840858746875" y="28.27246725" text-anchor="start" dominant-baseline="alphabetic" xml:space="preserve">Authentication flow</text></g><g><g><path fill="#C4DFD1" stroke="black" paint-order="fill stroke markers" d=" M 396.026831375 59.08945655249998 L 806.3580783212501 59.08945655249998 L 806.3580783212501 1274.8997898600003 L 396.026831375 1274.8997898600003 L 396.026831375 59.08945655249998" stroke-miterlimit="10" stroke-width="1.5706926250000002" stroke-dasharray=""/></g><g><text fill="black" stroke="none" font-family="sans-serif" font-size="11pt" font-style="normal" font-weight="normal" text-decoration="normal" x="572.0091052387501" y="85.47709265249998" text-anchor="start" dominant-baseline="alphabetic" xml:space="preserve">Account </text></g><g><path fill="#F9D2FF" stroke="black" paint-order="fill stroke markers" d=" M 892.3538687181251 58.1470409775 L 1245.352262195625 58.1470409775 L 1245.352262195625 1274.8997898600003 L 892.3538687181251 1274.8997898600003 L 892.3538687181251 58.1470409775" stroke-miterlimit="10" stroke-width="1.5706926250000002" stroke-dasharray=""/></g><g><text fill="black" stroke="none" font-family="sans-serif" font-size="11pt" font-style="normal" font-weight="normal" text-decoration="normal" x="1007.1501845974999" y="84.53467707749999" text-anchor="start" dominant-baseline="alphabetic" xml:space="preserve">Chat Management</text></g><rect fill="rgb(255,252,246)" stroke="none" x="18.84831150000001" y="590.7060824100001" width="1220.916338311875" height="618.2246172000002"/></g><g><path fill="none" stroke="black" paint-order="fill stroke markers" d=" M 84.81740175000002 193.00670976 L 84.81740175000002 1274.8997898600003" stroke-miterlimit="10" stroke-width="1.5706926250000002" stroke-dasharray="14.498701153846154,6.282770500000001"/><path fill="none" stroke="black" paint-order="fill stroke markers" d=" M 478.8408582275 193.00670976 L 478.8408582275 1274.8997898600003" stroke-miterlimit="10" stroke-width="1.5706926250000002" stroke-dasharray="14.498701153846154,6.282770500000001"/><path fill="none" stroke="black" paint-order="fill stroke markers" d=" M 759.2372995712501 193.00670976 L 759.2372995712501 1274.8997898600003" stroke-miterlimit="10" stroke-width="1.5706926250000002" stroke-dasharray="14.498701153846154,6.282770500000001"/><path fill="none" stroke="black" paint-order="fill stroke markers" d=" M 955.1422822806251 193.00670976 L 955.1422822806251 1274.8997898600003" stroke-miterlimit="10" stroke-width="1.5706926250000002" stroke-dasharray="14.498701153846154,6.282770500000001"/><path fill="none" stroke="black" paint-order="fill stroke markers" d=" M 1173.795559561875 193.00670976 L 1173.795559561875 1274.8997898600003" stroke-miterlimit="10" stroke-width="1.5706926250000002" stroke-dasharray="14.498701153846154,6.282770500000001"/></g><g><g><path fill="white" stroke="black" paint-order="fill stroke markers" d=" M 95.56093930500002 113.27835211499999 A 10.743537555 10.743537555 0 1 1 95.56093393323168 113.26760857923557 M 84.81740175000002 124.02188966999998 L 84.81740175000002 147.0168297 M 71.24661747000002 132.31514672999998 L 98.38818603000001 132.31514672999998 M 84.81740175000002 147.0168297 L 71.24661747000002 168.50390481 M 84.81740175000002 147.0168297 L 98.38818603000001 168.50390481" stroke-miterlimit="10" stroke-width="3.2042129550000005" stroke-dasharray=""/></g><g><g/><text fill="black" stroke="none" font-family="sans-serif" font-size="11pt" font-style="normal" font-weight="normal" text-decoration="normal" x="65.64259706250002" y="187.35221631000002" text-anchor="start" dominant-baseline="alphabetic" xml:space="preserve">Client</text></g><path fill="none" stroke="none"/><g><path fill="white" stroke="black" paint-order="fill stroke markers" d=" M 405.450987125 142.11626870999999 L 552.23072933 142.11626870999999 L 552.23072933 193.00670975999998 L 405.450987125 193.00670975999998 L 405.450987125 142.11626870999999 Z" stroke-miterlimit="10" stroke-width="3.01572984" stroke-dasharray=""/></g><g><g/><text fill="black" stroke="none" font-family="sans-serif" font-size="11pt" font-style="normal" font-weight="normal" text-decoration="normal" x="425.9014051025" y="174.15839826" text-anchor="start" dominant-baseline="alphabetic" xml:space="preserve">Account service</text></g><g><path fill="white" stroke="black" paint-order="fill stroke markers" d=" M 731.7187647812501 156.06401922 L 731.7187647812501 116.48256506999999 L 786.7558343612501 116.48256506999999 L 786.7558343612501 156.06401922" stroke-miterlimit="10" stroke-width="3.2042129550000005" stroke-dasharray=""/><path fill="white" stroke="black" paint-order="fill stroke markers" d=" M 786.7558343612501 115.10663833049999 L 786.7544584459766 115.2310351130961 L 786.7503308377466 115.3554194561176 L 786.7434519493173 115.47977892123386 L 786.7338224685719 115.60410107260199 L 786.7214433584505 115.72837347811047 L 786.7063158568538 115.8525837106223 L 786.6884414765193 115.97671934921773 L 786.6678220048701 116.10076798043636 L 786.6444595038363 116.22471719951844 L 786.6183563096483 116.34855461164534 L 786.5895150326041 116.47226783317905 L 786.5579385568071 116.59584449290051 L 786.5236300398788 116.71927223324674 L 786.4865929126421 116.84253871154655 L 786.4468308787789 116.96563160125483 L 786.4043479144594 117.08853859318519 L 786.3591482679449 117.21124739674086 L 786.311236459162 117.33374574114374 L 786.2606172792521 117.45602137666148 L 786.2072957900906 117.57806207583242 L 786.1512773237821 117.69985563468833 L 786.0925674821266 117.82138987397482 L 786.0311721360594 117.94265264036926 L 785.9670974250638 118.06363180769605 L 785.9003497565576 118.18431527813928 L 785.830935805252 118.30469098345246 L 785.7588625124844 118.42474688616538 L 785.6841370855237 118.54447098078782 L 785.6067669968506 118.66385129501008 L 785.5267599834095 118.78287589090021 L 785.444124045835 118.90153286609784 L 785.358867447652 119.0198103550043 L 785.2709987144492 119.13769652996928 L 785.1805266330267 119.2551796024735 L 785.0874602505173 119.37224782430766 L 784.9918088734819 119.48888948874708 L 784.8935820669781 119.60509293172255 L 784.7927896536049 119.7208465329866 L 784.6894417125197 119.83613871727555 L 784.5835485784305 119.95095795546706 L 784.4751208405622 120.065292765733 L 784.3641693415985 120.17913171468761 L 784.2507051765969 120.29246341853087 L 784.1347396918791 120.40527654418683 L 784.0162844838969 120.51755981043694 L 783.8953513980726 120.62930198904814 L 783.771952527614 120.7404919058957 L 783.6461002123052 120.85111844208056 L 783.5178070372729 120.96117053504133 L 783.3870858317276 121.07063717966041 L 783.2539496676811 121.17950742936455 L 783.1184118586388 121.2877703972195 L 782.9804859582686 121.39541525701873 L 782.8401857590455 121.50243124436591 L 782.6975252908727 121.60880765775153 L 782.5525188196781 121.71453385962288 L 782.405180845988 121.81959927744788 L 782.2555261034768 121.92399340477229 L 782.1035695574942 122.02770580227039 L 781.9493264035681 122.13072609878886 L 781.7928120658855 122.23304399238387 L 781.6340421957495 122.33464925135135 L 781.4730326700151 122.43553171525008 L 781.3097995895005 122.53568129591771 L 781.1443592773776 122.63508797847965 L 780.9767282775401 122.73374182235048 L 780.806923352948 122.83163296222801 L 780.6349614839523 122.92875160907987 L 780.4608598665968 123.02508805112225 L 780.284635910898 123.12063265479128 L 780.1063072391046 123.21537586570616 L 779.9258916839351 123.3093082096248 L 779.7434072867949 123.40242029339106 L 779.5588722959715 123.49470280587416 L 779.3723051648101 123.58614651889974 L 779.1837245498685 123.67674228817272 L 778.993149309051 123.76648105419166 L 778.8005984997229 123.85535384315475 L 778.6060913768047 123.94335176785714 L 778.4096473908464 124.0304660285797 L 778.2112861860833 124.11668791396895 L 778.01102759847 124.2020088019082 L 777.808891653699 124.28642016037976 L 777.6048985651959 124.36991354831812 L 777.3990687320996 124.45248061645408 L 777.1914227372221 124.53411310814963 L 776.9819813449897 124.61480286022359 L 776.770765499367 124.69454180376803 L 776.5577963217628 124.77332196495504 L 776.3430951089172 124.85113546583416 L 776.1266833307726 124.92797452512012 L 775.9085826283265 125.00383145897104 L 775.6888148114674 125.07869868175675 L 775.4674018567938 125.15256870681735 L 775.2443659054167 125.2254341472119 L 775.0197292607453 125.29728771645708 L 774.793514386257 125.36812222925585 L 774.5657439032507 125.43793060221594 L 774.3364405885848 125.50670585455826 L 774.1056273723997 125.57444110881485 L 773.8733273358248 125.64112959151676 L 773.63956370867 125.70676463387127 L 773.4043598671034 125.77133967242887 L 773.1677393313131 125.83484824973948 L 772.9297257631554 125.89728401499832 L 772.6903429637888 125.95864072468089 L 772.4496148712938 126.01891224316734 L 772.2075655582789 126.07809254335606 L 771.964219229474 126.13617570726633 L 771.7196002193089 126.19315592663018 L 771.4737329894809 126.24902750347316 L 771.2266421265081 126.30378485068412 L 770.9783523392708 126.357422492574 L 770.728888456541 126.4099350654233 L 770.4782754244989 126.46131731801847 L 770.2265383042388 126.5115641121771 L 769.9737022692632 126.56067042326164 L 769.7197926029647 126.60863134068188 L 769.4648346960985 126.6554420683861 L 769.2088540442427 126.70109792534046 L 768.9518762452492 126.74559434599738 L 768.6939269966838 126.78892688075184 L 768.4350320932563 126.83109119638648 L 768.1752174242413 126.87208307650488 L 767.9145089708893 126.91189842195318 L 767.6529328038283 126.95053325123003 L 767.390515080457 126.98798370088468 L 767.1272820423292 127.02424602590338 L 766.8632600125292 127.05931660008385 L 766.5984753930401 127.09319191639788 L 766.332954662103 127.1258685873421 L 766.0667243715699 127.15734334527662 L 765.7998111442479 127.18761304275188 L 765.5322416712373 127.21667465282336 L 765.2640427092626 127.24452526935427 L 764.9952410779963 127.27116210730617 L 764.7258636573775 127.29658250301745 L 764.455937384924 127.32078391446974 L 764.185489253038 127.34376392154205 L 763.9145463063072 127.36552022625283 L 763.6431356388007 127.38605065298974 L 763.3712843913589 127.4053531487272 L 763.0990197488801 127.42342578323174 L 762.8263689376016 127.44026674925496 L 762.5533592223773 127.45587436271428 L 762.2800179039513 127.4702470628614 L 762.0063723162276 127.48338341243824 L 761.732449823537 127.4952820978208 L 761.4582778179005 127.50594192915048 L 761.18388371629 127.51536184045301 L 760.9092949578873 127.5235408897451 L 760.6345390013391 127.53047825912867 L 760.3596433220123 127.53617325487254 L 760.0846354092458 127.54062530748187 L 759.8095427636015 127.54383397175513 L 759.534392894115 127.54579892682855 L 759.2592133155435 127.54651997620829 L 758.9840315456161 127.54599704778998 L 758.7088751022801 127.54423019386604 L 758.4337715009507 127.5412195911204 L 758.1587482517587 127.5369655406108 L 757.8838328567998 127.53146846773876 L 757.6090528073845 127.52472892220699 L 757.3344355812887 127.51674757796442 L 757.0600086400062 127.50752523313884 L 756.7857994260024 127.49706280995701 L 756.5118353599703 127.48536135465258 L 756.238143838088 127.4724220373613 L 755.9647522292798 127.45824615200411 L 755.6916878724787 127.44283511615774 L 755.4189780738928 127.42619047091293 L 755.1466501042747 127.40831388072034 L 754.8747311961944 127.3892071332241 L 754.6032485413161 127.36887213908302 L 754.3322292876793 127.34731093177959 L 754.0617005369832 127.32452566741654 L 753.7916893418775 127.30051862450134 L 753.5222227032567 127.27529220371828 L 753.2533275675602 127.2488489276884 L 752.9850308240775 127.22119144071729 L 752.7173593022593 127.19232250853057 L 752.4503397690346 127.16224501799744 L 752.1839989261344 127.13096197684183 L 751.9183634074211 127.09847651334185 L 751.6534597762251 127.06479187601674 L 751.3893145226886 127.02991143330217 L 751.125954061117 126.99383867321336 L 750.8634047273371 126.95657720299624 L 750.6016927760633 126.9181307487668 L 750.3408443782727 126.87850315513839 L 750.0808856185878 126.83769838483738 L 749.8218424926677 126.79572051830678 L 749.5637409046094 126.75257375329828 L 749.3066066643564 126.7082624044524 L 749.0504654851186 126.66279090286713 L 748.7953429808003 126.6161637956547 L 748.5412646634396 126.568385745487 L 748.2882559406562 126.51946153012923 L 748.0363421131118 126.46939604196216 L 747.7855483719791 126.41819428749287 L 747.5358997964232 126.36586138685414 L 747.2874213510937 126.31240257329243 L 747.040137883628 126.25782319264455 L 746.7940741221668 126.20212870280308 L 746.549254672881 126.14532467317059 L 746.305704017512 126.0874167841027 L 746.063446510922 126.02841082634008 L 745.8225063786597 125.96831270042931 L 745.5829077145378 125.90712841613292 L 745.3446744782229 125.84486409182836 L 745.1078304928403 125.78152595389614 L 744.8723994425909 125.71712033609728 L 744.6384048703837 125.65165367893992 L 744.4058701754809 125.58513252903519 L 744.1748186111581 125.51756353844266 L 743.9452732823794 125.44895346400507 L 743.7172571434862 125.37930916667271 L 743.4907929959024 125.30863761081726 L 743.2659034858542 125.23694586353541 L 743.0426111021051 125.16424109394215 L 742.8209381737073 125.09053057245386 L 742.600906867769 125.01582167006126 L 742.3825391872375 124.94012185759232 L 742.1658569686988 124.86343870496522 L 741.9508818801942 124.7857798804313 L 741.7376354190534 124.70715314980833 L 741.5261389097448 124.62756637570382 L 741.316413501743 124.54702751672887 L 741.1084801674143 124.46554462670227 L 740.9023596999186 124.38312585384512 L 740.698072711131 124.29977943996599 L 740.4956396295801 124.21551371963685 L 740.2950806984053 124.13033711935951 L 740.0964159733327 124.044258156723 L 739.8996653206692 123.95728543955185 L 739.7048484153162 123.86942766504532 L 739.5119847388017 123.78069361890765 L 739.3210935773328 123.69109217446947 L 739.1321940198665 123.6006322918006 L 738.9453049562011 123.50932301681388 L 738.7604450750873 123.41717348036076 L 738.5776328623591 123.32419289731808 L 738.3968865990855 123.23039056566665 L 738.2182243597422 123.13577586556148 L 738.0416640104041 123.04035825839372 L 737.8672232069591 122.9441472858446 L 737.6949193933423 122.84715256893116 L 737.5247697997913 122.7493838070443 L 737.3567914411238 122.65085077697871 L 737.1910011150355 122.5515633319553 L 737.0274154004211 122.45153140063582 L 736.8660506557155 122.35076498613006 L 736.7069230172589 122.24927416499548 L 736.5500483976824 122.14706908622964 L 736.3954424843173 122.04415997025522 L 736.2431207376261 121.94055710789807 L 736.0930983896565 121.83627085935811 L 735.9453904425181 121.73131165317326 L 735.8000116668829 121.62568998517669 L 735.6569766005072 121.51941641744718 L 735.5162995467782 121.41250157725294 L 735.3779945732844 121.30495615598889 L 735.2420755104075 121.19679090810753 L 735.1085559499409 121.08801665004353 L 734.9774492437291 120.97864425913204 L 734.8487685023335 120.868684672521 L 734.7225265937212 120.75814888607746 L 734.5987361419778 120.64704795328794 L 734.4774095260452 120.53539298415312 L 734.3585588784839 120.42319514407689 L 734.2421960842597 120.31046565274976 L 734.1283327795551 120.19721578302689 L 734.0169803506055 120.08345685980092 L 733.9081499325612 119.96920025886935 L 733.8018524083731 119.85445740579706 L 733.6980984077052 119.73923977477375 L 733.596898305871 119.6235588874665 L 733.4982622227965 119.50742631186765 L 733.4022000220076 119.39085366113795 L 733.3087213096445 119.27385259244537 L 733.2178354335006 119.15643480579926 L 733.1295514820875 119.03861204288044 L 733.043878283727 118.92039608586701 L 732.9608244056675 118.80179875625618 L 732.8803981532275 118.68283191368205 L 732.8026075689654 118.56350745472976 L 732.7274604318745 118.44383731174575 L 732.6549642566063 118.32383345164462 L 732.5851262927175 118.20350787471236 L 732.5179535239466 118.0828726134064 L 732.4534526675144 117.96193973115231 L 732.3916301734528 117.8407213211376 L 732.3324922239595 117.71922950510219 L 732.2760447327805 117.59747643212648 L 732.2222933446176 117.47547427741631 L 732.171243434565 117.35323524108547 L 732.122900107571 117.23077154693573 L 732.0772681979282 117.10809544123444 L 732.0343522687895 116.98521919148996 L 731.9941566117119 116.86215508522486 L 731.9566852462277 116.73891542874722 L 731.9219419194422 116.61551254591997 L 731.8899301056593 116.49195877692857 L 731.8606530060334 116.36826647704696 L 731.8341135482503 116.24444801540206 L 731.8103143862337 116.12051577373683 L 731.7892578998798 115.99648214517217 L 731.7709461948197 115.87235953296756 L 731.7553811022086 115.74816034928082 L 731.742564178543 115.62389701392681 L 731.7324967055044 115.4995819531355 L 731.7251796898319 115.37522759830938 L 731.7206138632207 115.25084638478029 L 731.7187996822499 115.12645075056595 L 731.719737328336 115.00205313512612 L 731.7234267077151 114.87766597811867 L 731.7298674514525 114.75330171815565 L 731.7390589154791 114.62897279155942 L 731.751000180656 114.50469163111902 L 731.765690052867 114.38047066484695 L 731.7831270631367 114.2563223147363 L 731.8033094677788 114.13225899551864 L 731.8262352485699 114.00829311342248 L 731.8519021129506 113.88443706493277 L 731.880307494256 113.76070323555109 L 731.9114485519718 113.63710399855732 L 731.9453221720181 113.51365171377212 L 731.981924967061 113.39035872632113 L 732.0212532768517 113.2672373654003 L 732.0633031685917 113.14429994304317 L 732.1080704373271 113.0215587528895 L 732.1555506063684 112.89902606895605 L 732.2057389277379 112.77671414440906 L 732.2586303826457 112.6546352103391 L 732.3142196819902 112.5328014745378 L 732.3725012668878 112.41122512027727 L 732.4334693092285 112.28991830509158 L 732.4971177122591 112.16889315956116 L 732.563440111192 112.04816178609974 L 732.6324298738429 111.92773625774403 L 732.7040801012928 111.80762861694653 L 732.7783836285788 111.68785087437121 L 732.8553330254101 111.56841500769252 L 732.934920596911 111.4493329603976 L 733.0171383843908 111.33061664059196 L 733.1019781661392 111.21227791980861 L 733.1894314582488 111.09432863182106 L 733.2794895154632 110.9767805714598 L 733.3721433320517 110.8596454934329 L 733.4673836427099 110.74293511115056 L 733.5652009234861 110.62666109555374 L 733.6655853927338 110.51083507394712 L 733.7685270120895 110.39546862883633 L 733.8740154874773 110.28057329676975 L 733.9820402701375 110.16616056718483 L 734.0925905576819 110.05224188125919 L 734.2056552951736 109.9388286307665 L 734.3212231762335 109.82593215693727 L 734.4392826441695 109.71356374932483 L 734.5598218931332 109.60173464467631 L 734.6828288693002 109.49045602580895 L 734.8082912720755 109.37973902049194 L 734.9361965553232 109.26959470033351 L 735.0665319286217 109.16003407967392 L 735.1992843585422 109.05106811448393 L 735.3344405699523 108.94270770126924 L 735.4719870473436 108.83496367598089 L 735.611910036183 108.7278468129316 L 735.754195544288 108.62136782371844 L 735.8988293432267 108.51553735615158 L 736.0457969697394 108.41036599318959 L 736.195083727186 108.30586425188112 L 736.3466746870154 108.20204258231323 L 736.5005546902577 108.09891136656633 L 736.6567083490407 107.99648091767608 L 736.8151200481291 107.89476147860199 L 736.9757739464845 107.79376322120322 L 737.1386539788514 107.69349624522135 L 737.3037438573618 107.5939705772704 L 737.4710270731659 107.49519616983423 L 737.6404868980812 107.39718290027129 L 737.8121063862666 107.29994056982684 L 737.9858683759162 107.2034789026529 L 738.1617554909759 107.10780754483581 L 738.3397501428807 107.0129360634316 L 738.5198345323137 106.91887394550938 L 738.7019906509862 106.82563059720253 L 738.8862002834379 106.7332153427682 L 739.0724450088593 106.64163742365483 L 739.260706202933 106.55090599757798 L 739.4509650396963 106.46103013760468 L 739.6432024934243 106.37201883124601 L 739.8373993405316 106.28388097955845 L 740.0335361614955 106.19662539625371 L 740.2315933427973 106.11026080681741 L 740.4315510788839 106.02479584763651 L 740.6333893741484 105.94023906513573 L 740.8370880449294 105.85659891492284 L 741.0426267215295 105.77388376094316 L 741.2499848502524 105.69210187464319 L 741.459141695458 105.61126143414336 L 741.6700763416361 105.53137052342039 L 741.8827676954979 105.45243713149877 L 742.0971944880853 105.3744691516519 L 742.3133352768975 105.2974743806128 L 742.5311684480359 105.22146051779441 L 742.7506722183649 105.14643516451969 L 742.9718246376905 105.0724058232614 L 743.1946035909548 104.99937989689202 L 743.4189868004482 104.92736468794331 L 743.6449518280369 104.85636739787616 L 743.8724760774064 104.78639512636039 L 744.1015367963213 104.71745487056488 L 744.3321110789005 104.64955352445773 L 744.564175867908 104.58269787811697 L 744.7977079570583 104.51689461705153 L 745.0326839933371 104.45215032153268 L 745.2690804793365 104.38847146593602 L 745.506873775605 104.32586441809404 L 745.746040103011 104.26433543865934 L 745.9865555451212 104.20389068047862 L 746.2283960505918 104.14453618797731 L 746.4715374355736 104.08627789655519 L 746.715955386131 104.02912163199285 L 746.9616254606725 103.97307310986915 L 747.2085230923954 103.91813793498955 L 747.4566235917421 103.86432160082579 L 747.7059021488695 103.81162948896645 L 747.9563338361299 103.76006686857876 L 748.2078936105629 103.70963889588182 L 748.4605563164009 103.6603506136309 L 748.7142966875838 103.6122069506131 L 748.9690893502858 103.56521272115464 L 749.2249088254532 103.51937262463929 L 749.4817295313514 103.47469124503849 L 749.7395257861242 103.431173050453 L 749.9982718103606 103.38882239266597 L 750.2579417296739 103.34764350670793 L 750.5185095772887 103.30764051043313 L 750.7799492966371 103.26881740410788 L 751.0422347439653 103.23117807001044 L 751.305339690947 103.19472627204287 L 751.5692378273068 103.15946565535458 L 751.833902763451 103.12539974597786 L 752.0993080331065 103.09253195047528 L 752.3654270959673 103.06086555559895 L 752.6322333403493 103.03040372796202 L 752.8997000858502 103.00114951372184 L 753.1678005860183 102.97310583827547 L 753.436508031027 102.94627550596708 L 753.7057955503557 102.92066119980754 L 753.9756362154769 102.89626548120611 L 754.2460030425491 102.87309078971435 L 754.5168689951147 102.85113944278207 L 754.7882069868042 102.83041363552569 L 755.0599898840446 102.81091544050864 L 755.3321905087727 102.7926468075342 L 755.6047816411527 102.77560956345042 L 755.8777360222987 102.75980541196752 L 756.151026357 102.74523593348749 L 756.4246253164507 102.73190258494603 L 756.6985055409831 102.71980669966686 L 756.9726396428028 102.70894948722847 L 757.2470002087282 102.69933203334303 L 757.5215598029313 102.69095529974791 L 757.7962909696814 102.6838201241095 L 758.0711662360908 102.67792721993942 L 758.346158114862 102.67327717652316 L 758.6212391070362 102.66987045886121 L 758.8963817047434 102.66770740762249 L 759.1715583939532 102.6667882391103 L 759.446741657226 102.66711304524074 L 759.7219039764645 102.66868179353348 L 759.9970178356666 102.67149432711498 L 760.2720557236752 102.67555036473425 L 760.546990136931 102.68084950079088 L 760.8217935822214 102.68739120537569 L 761.0964385794313 102.69517482432367 L 761.3708976642896 102.70419957927942 L 761.6451433911166 102.71446456777497 L 761.9191483355681 102.72596876332 L 762.192885097378 102.73871101550456 L 762.4663263030984 102.75269005011405 L 762.7394446088364 102.76790446925666 L 763.012212702989 102.78435275150315 L 763.2846033089743 102.80203325203901 L 763.5565891879585 102.8209442028289 L 763.8281431415804 102.84108371279352 L 764.0992380146711 102.86244976799864 L 764.3698466979689 102.88504023185656 L 764.6399421308313 102.90885284533972 L 764.9094973039398 102.9338852272066 L 765.1784852620019 102.96013487423988 L 765.4468791064459 102.98759916149673 L 765.714651998111 103.01627534257133 L 765.9817771599311 103.04616054986944 L 766.2482278796128 103.07725179489526 L 766.513977512306 103.10954596855018 L 766.7789994832691 103.14303984144375 L 767.0432672905257 103.17773006421659 L 767.3067545075153 103.21361316787534 L 767.5694347857358 103.25068556413953 L 767.8312818573783 103.28894354580042 L 768.0922695379537 103.32838328709175 L 768.3523717289116 103.36900084407223 L 768.6115624202497 103.41079215502002 L 768.8698156931147 103.45375304083886 L 769.1271057223945 103.49787920547595 L 769.3834067793008 103.54316623635162 L 769.6386932339412 103.5896096048005 L 769.8929395578833 103.63720466652447 L 770.1461203267063 103.68594666205699 L 770.3982102225444 103.73583071723915 L 770.6491840366182 103.78685184370701 L 770.8990166717552 103.8390049393904 L 771.1476831449004 103.89228478902326 L 771.3951585896134 103.946686064665 L 771.6414182585561 104.00220332623338 L 771.8864375259668 104.05883102204854 L 772.1301918901229 104.11656348938806 L 772.3726569757912 104.17539495505332 L 772.6138085366651 104.2353195359468 L 772.8536224577896 104.29633123966032 L 773.0920747579722 104.35842396507437 L 773.3291415921818 104.42159150296814 L 773.5647992539325 104.4858275366405 L 773.7990241776545 104.55112564254159 L 774.0317929410505 104.61747929091526 L 774.2630822674383 104.68488184645193 L 774.492869028078 104.75332656895225 L 774.7211302444848 104.822806614001 L 774.9478430907275 104.89331503365155 L 775.1729848957102 104.96484477712072 L 775.3965331454403 105.03738869149376 L 775.6184654852789 105.1109395224397 L 775.8387597221771 105.1854899149367 L 776.0573938268947 105.26103241400767 L 776.2743459362033 105.33755946546566 L 776.489594355073 105.41506341666926 L 776.7031175588411 105.49353651728796 L 776.9148941953654 105.57297092007711 L 777.1249030871584 105.65335868166258 L 777.3331232335062 105.73469176333525 L 777.5395338125675 105.8169620318547 L 777.7441141834565 105.90016126026264 L 777.9468438883066 105.98428112870556 L 778.1477026543163 106.06931322526673 L 778.3466703957762 106.15524904680734 L 778.5437272160781 106.24207999981685 L 778.7388534097042 106.32979740127232 L 778.9320294641976 106.4183924795067 L 779.123236062114 106.507856375086 L 779.3124540829529 106.59818014169522 L 779.4996646050698 106.68935474703298 L 779.6848489075686 106.78137107371468 L 779.8679884721734 106.87421992018437 L 780.0490649850801 106.96789200163477 L 780.2280603387886 107.06237795093577 L 780.4049566339127 107.15766831957121 L 780.57973618097 107.25375357858363 L 780.7523815021517 107.35062411952718 L 780.9228753330696 107.44827025542851 L 781.0912006244824 107.5466822217554 L 781.2573405440015 107.64585017739321 L 781.4212784777733 107.74576420562904 L 781.5829980321411 107.84641431514332 L 781.742483035284 107.94779044100896 L 781.8997175388348 108.04988244569786 L 782.0546858194742 108.15268012009463 L 782.2073723805031 108.25617318451751 L 782.3577619533928 108.36035128974626 L 782.5058394993113 108.46520401805722 L 782.6515902106273 108.5707208842649 L 782.7949995123913 108.67689133677064 L 782.9360530637925 108.78370475861763 L 783.0747367595934 108.89115046855272 L 783.2110367315398 108.99921772209446 L 783.3449393497483 109.10789571260753 L 783.4764312240686 109.21717357238346 L 783.6054992054228 109.32704037372733 L 783.7321303871203 109.43748513005055 L 783.8563121061486 109.54849679696954 L 783.9780319444391 109.66006427341013 L 784.0972777301096 109.77217640271762 L 784.2140375386806 109.88482197377252 L 784.3282996942689 109.99798972211158 L 784.4400527707539 110.1116683310543 L 784.5492855929213 110.2258464328345 L 784.6559872375797 110.34051260973716 L 784.7601470346536 110.45565539524013 L 784.8617545682501 110.57126327516083 L 784.9607996777007 110.68732468880759 L 785.0572724585768 110.80382803013576 L 785.1511632636806 110.92076164890833 L 785.2424627040101 111.03811385186081 L 785.3311616496972 111.15587290387074 L 785.4172512309212 111.27402702913105 L 785.5007228387958 111.39256441232766 L 785.5815681262299 111.51147319982103 L 785.6597790087618 111.6307415008315 L 785.7353476653687 111.75035738862837 L 785.8082665392478 111.87030890172255 L 785.8785283385726 111.99058404506266 L 785.9461260372215 112.11117079123463 L 786.011052875481 112.2320570816643 L 786.0733023607216 112.35323082782337 L 786.1328682680465 112.4746799124382 L 786.1897446409147 112.59639219070156 L 786.243925791736 112.71835549148705 L 786.2954063024409 112.8405576185662 L 786.3441810250209 112.96298635182814 L 786.3902450820447 113.08562944850158 L 786.4335938671446 113.20847464437905 L 786.4742230454785 113.33150965504333 L 786.5121285541624 113.4547221770959 L 786.5473066026768 113.57809988938722 L 786.5797536732465 113.70163045424886 L 786.6094665211912 113.8253015187273 L 786.636442175251 113.94910071581913 L 786.6606779378828 114.07301566570783 L 786.6821713855309 114.19703397700164 L 786.7009203688681 114.32114324797281 L 786.7169230130119 114.44533106779765 L 786.730177717711 114.56958501779769 L 786.7406831575062 114.69389267268144 L 786.7484382818621 114.81824160178702 L 786.7534423152729 114.94261937032516 L 786.7556947573394 115.06701354062261 M 786.7558343612501 154.68809248050002 L 786.7544584459766 154.81248926309613 L 786.7503308377466 154.93687360611762 L 786.7434519493173 155.0612330712339 L 786.7338224685719 155.18555522260203 L 786.7214433584505 155.3098276281105 L 786.7063158568538 155.43403786062234 L 786.6884414765193 155.55817349921776 L 786.6678220048701 155.6822221304364 L 786.6444595038363 155.80617134951845 L 786.6183563096483 155.93000876164535 L 786.5895150326041 156.05372198317906 L 786.5579385568071 156.17729864290055 L 786.5236300398788 156.30072638324677 L 786.4865929126421 156.42399286154657 L 786.4468308787789 156.54708575125485 L 786.4043479144594 156.66999274318522 L 786.3591482679449 156.7927015467409 L 786.311236459162 156.91519989114377 L 786.2606172792521 157.03747552666152 L 786.2072957900906 157.15951622583245 L 786.1512773237821 157.28130978468835 L 786.0925674821266 157.40284402397486 L 786.0311721360594 157.5241067903693 L 785.9670974250638 157.6450859576961 L 785.9003497565576 157.7657694281393 L 785.830935805252 157.8861451334525 L 785.7588625124844 158.0062010361654 L 785.6841370855237 158.12592513078783 L 785.6067669968506 158.2453054450101 L 785.5267599834095 158.36433004090023 L 785.444124045835 158.48298701609787 L 785.358867447652 158.60126450500434 L 785.2709987144492 158.7191506799693 L 785.1805266330267 158.83663375247355 L 785.0874602505173 158.95370197430768 L 784.9918088734819 159.07034363874712 L 784.8935820669781 159.18654708172258 L 784.7927896536049 159.3023006829866 L 784.6894417125197 159.41759286727557 L 784.5835485784305 159.5324121054671 L 784.4751208405622 159.64674691573302 L 784.3641693415985 159.76058586468764 L 784.2507051765969 159.87391756853089 L 784.1347396918791 159.98673069418686 L 784.0162844838969 160.09901396043696 L 783.8953513980726 160.21075613904816 L 783.771952527614 160.32194605589572 L 783.6461002123052 160.4325725920806 L 783.5178070372729 160.54262468504137 L 783.3870858317276 160.65209132966044 L 783.2539496676811 160.76096157936456 L 783.1184118586388 160.86922454721955 L 782.9804859582686 160.97686940701874 L 782.8401857590455 161.08388539436595 L 782.6975252908727 161.19026180775157 L 782.5525188196781 161.2959880096229 L 782.405180845988 161.4010534274479 L 782.2555261034768 161.50544755477233 L 782.1035695574942 161.60915995227043 L 781.9493264035681 161.71218024878888 L 781.7928120658855 161.8144981423839 L 781.6340421957495 161.9161034013514 L 781.4730326700151 162.0169858652501 L 781.3097995895005 162.11713544591774 L 781.1443592773776 162.2165421284797 L 780.9767282775401 162.3151959723505 L 780.806923352948 162.41308711222806 L 780.6349614839523 162.5102057590799 L 780.4608598665968 162.6065422011223 L 780.284635910898 162.7020868047913 L 780.1063072391046 162.7968300157062 L 779.9258916839351 162.89076235962483 L 779.7434072867949 162.98387444339107 L 779.5588722959715 163.07615695587418 L 779.3723051648101 163.16760066889975 L 779.1837245498685 163.25819643817275 L 778.993149309051 163.34793520419169 L 778.8005984997229 163.4368079931548 L 778.6060913768047 163.52480591785718 L 778.4096473908464 163.61192017857974 L 778.2112861860833 163.698142063969 L 778.01102759847 163.78346295190823 L 777.808891653699 163.8678743103798 L 777.6048985651959 163.95136769831817 L 777.3990687320996 164.0339347664541 L 777.1914227372221 164.11556725814964 L 776.9819813449897 164.19625701022363 L 776.770765499367 164.27599595376807 L 776.5577963217628 164.3547761149551 L 776.3430951089172 164.4325896158342 L 776.1266833307726 164.50942867512015 L 775.9085826283265 164.58528560897108 L 775.6888148114674 164.66015283175676 L 775.4674018567938 164.73402285681738 L 775.2443659054167 164.80688829721194 L 775.0197292607453 164.87874186645712 L 774.793514386257 164.9495763792559 L 774.5657439032507 165.01938475221598 L 774.3364405885848 165.0881600045583 L 774.1056273723997 165.1558952588149 L 773.8733273358248 165.2225837415168 L 773.63956370867 165.28821878387132 L 773.4043598671034 165.3527938224289 L 773.1677393313131 165.41630239973952 L 772.9297257631554 165.47873816499836 L 772.6903429637888 165.5400948746809 L 772.4496148712938 165.60036639316738 L 772.2075655582789 165.65954669335608 L 771.964219229474 165.71762985726636 L 771.7196002193089 165.7746100766302 L 771.4737329894809 165.83048165347319 L 771.2266421265081 165.88523900068415 L 770.9783523392708 165.93887664257403 L 770.728888456541 165.9913892154233 L 770.4782754244989 166.0427714680185 L 770.2265383042388 166.09301826217714 L 769.9737022692632 166.14212457326167 L 769.7197926029647 166.19008549068192 L 769.4648346960985 166.2368962183861 L 769.2088540442427 166.2825520753405 L 768.9518762452492 166.32704849599742 L 768.6939269966838 166.37038103075187 L 768.4350320932563 166.4125453463865 L 768.1752174242413 166.45353722650492 L 767.9145089708893 166.4933525719532 L 767.6529328038283 166.53198740123005 L 767.390515080457 166.5694378508847 L 767.1272820423292 166.6057001759034 L 766.8632600125292 166.64077075008387 L 766.5984753930401 166.6746460663979 L 766.332954662103 166.7073227373421 L 766.0667243715699 166.73879749527663 L 765.7998111442479 166.7690671927519 L 765.5322416712373 166.79812880282338 L 765.2640427092626 166.8259794193543 L 764.9952410779963 166.85261625730618 L 764.7258636573775 166.8780366530175 L 764.455937384924 166.90223806446977 L 764.185489253038 166.92521807154208 L 763.9145463063072 166.94697437625285 L 763.6431356388007 166.96750480298977 L 763.3712843913589 166.98680729872723 L 763.0990197488801 167.00487993323176 L 762.8263689376016 167.02172089925497 L 762.5533592223773 167.0373285127143 L 762.2800179039513 167.05170121286142 L 762.0063723162276 167.06483756243827 L 761.732449823537 167.07673624782083 L 761.4582778179005 167.08739607915052 L 761.18388371629 167.09681599045305 L 760.9092949578873 167.10499503974515 L 760.6345390013391 167.1119324091287 L 760.3596433220123 167.11762740487256 L 760.0846354092458 167.1220794574819 L 759.8095427636015 167.12528812175515 L 759.534392894115 167.1272530768286 L 759.2592133155435 167.12797412620833 L 758.9840315456161 167.12745119779 L 758.7088751022801 167.12568434386606 L 758.4337715009507 167.12267374112042 L 758.1587482517587 167.11841969061084 L 757.8838328567998 167.11292261773877 L 757.6090528073845 167.10618307220702 L 757.3344355812887 167.09820172796447 L 757.0600086400062 167.08897938313885 L 756.7857994260024 167.07851695995706 L 756.5118353599703 167.0668155046526 L 756.238143838088 167.0538761873613 L 755.9647522292798 167.03970030200412 L 755.6916878724787 167.02428926615775 L 755.4189780738928 167.00764462091297 L 755.1466501042747 166.98976803072037 L 754.8747311961944 166.97066128322413 L 754.6032485413161 166.95032628908305 L 754.3322292876793 166.9287650817796 L 754.0617005369832 166.90597981741658 L 753.7916893418775 166.88197277450138 L 753.5222227032567 166.8567463537183 L 753.2533275675602 166.83030307768843 L 752.9850308240775 166.8026455907173 L 752.7173593022593 166.7737766585306 L 752.4503397690346 166.74369916799745 L 752.1839989261344 166.71241612684187 L 751.9183634074211 166.67993066334188 L 751.6534597762251 166.64624602601677 L 751.3893145226886 166.61136558330222 L 751.125954061117 166.5752928232134 L 750.8634047273371 166.53803135299628 L 750.6016927760633 166.4995848987668 L 750.3408443782727 166.4599573051384 L 750.0808856185878 166.4191525348374 L 749.8218424926677 166.37717466830682 L 749.5637409046094 166.3340279032983 L 749.3066066643564 166.28971655445244 L 749.0504654851186 166.24424505286714 L 748.7953429808003 166.19761794565474 L 748.5412646634396 166.14983989548705 L 748.2882559406562 166.10091568012928 L 748.0363421131118 166.05085019196218 L 747.7855483719791 165.99964843749288 L 747.5358997964232 165.94731553685415 L 747.2874213510937 165.89385672329246 L 747.040137883628 165.83927734264458 L 746.7940741221668 165.7835828528031 L 746.549254672881 165.7267788231706 L 746.305704017512 165.66887093410273 L 746.063446510922 165.6098649763401 L 745.8225063786597 165.54976685042934 L 745.5829077145378 165.48858256613295 L 745.3446744782229 165.42631824182837 L 745.1078304928403 165.36298010389615 L 744.8723994425909 165.29857448609732 L 744.6384048703837 165.23310782893995 L 744.4058701754809 165.16658667903522 L 744.1748186111581 165.0990176884427 L 743.9452732823794 165.0304076140051 L 743.7172571434862 164.96076331667274 L 743.4907929959024 164.89009176081728 L 743.2659034858542 164.81840001353544 L 743.0426111021051 164.74569524394218 L 742.8209381737073 164.67198472245389 L 742.600906867769 164.59727582006127 L 742.3825391872375 164.52157600759236 L 742.1658569686988 164.44489285496525 L 741.9508818801942 164.36723403043135 L 741.7376354190534 164.28860729980835 L 741.5261389097448 164.20902052570386 L 741.316413501743 164.1284816667289 L 741.1084801674143 164.0469987767023 L 740.9023596999186 163.96458000384513 L 740.698072711131 163.88123358996603 L 740.4956396295801 163.7969678696369 L 740.2950806984053 163.71179126935954 L 740.0964159733327 163.62571230672302 L 739.8996653206692 163.53873958955188 L 739.7048484153162 163.45088181504536 L 739.5119847388017 163.36214776890768 L 739.3210935773328 163.2725463244695 L 739.1321940198665 163.1820864418006 L 738.9453049562011 163.09077716681392 L 738.7604450750873 162.9986276303608 L 738.5776328623591 162.9056470473181 L 738.3968865990855 162.81184471566667 L 738.2182243597422 162.7172300155615 L 738.0416640104041 162.62181240839377 L 737.8672232069591 162.52560143584464 L 737.6949193933423 162.42860671893118 L 737.5247697997913 162.33083795704434 L 737.3567914411238 162.23230492697874 L 737.1910011150355 162.13301748195533 L 737.0274154004211 162.03298555063586 L 736.8660506557155 161.93221913613007 L 736.7069230172589 161.8307283149955 L 736.5500483976824 161.72852323622965 L 736.3954424843173 161.62561412025525 L 736.2431207376261 161.5220112578981 L 736.0930983896565 161.41772500935812 L 735.9453904425181 161.31276580317328 L 735.8000116668829 161.20714413517672 L 735.6569766005072 161.1008705674472 L 735.5162995467782 160.99395572725297 L 735.3779945732844 160.8864103059889 L 735.2420755104075 160.77824505810756 L 735.1085559499409 160.66947080004357 L 734.9774492437291 160.56009840913205 L 734.8487685023335 160.45013882252104 L 734.7225265937212 160.33960303607748 L 734.5987361419778 160.22850210328795 L 734.4774095260452 160.11684713415315 L 734.3585588784839 160.00464929407693 L 734.2421960842597 159.89191980274978 L 734.1283327795551 159.77866993302692 L 734.0169803506055 159.66491100980096 L 733.9081499325612 159.55065440886938 L 733.8018524083731 159.4359115557971 L 733.6980984077052 159.3206939247738 L 733.596898305871 159.20501303746653 L 733.4982622227965 159.08888046186766 L 733.4022000220076 158.972307811138 L 733.3087213096445 158.8553067424454 L 733.2178354335006 158.7378889557993 L 733.1295514820875 158.62006619288047 L 733.043878283727 158.50185023586704 L 732.9608244056675 158.38325290625622 L 732.8803981532275 158.26428606368208 L 732.8026075689654 158.1449616047298 L 732.7274604318745 158.02529146174578 L 732.6549642566063 157.90528760164466 L 732.5851262927175 157.7849620247124 L 732.5179535239466 157.66432676340642 L 732.4534526675144 157.54339388115235 L 732.3916301734528 157.42217547113762 L 732.3324922239595 157.30068365510223 L 732.2760447327805 157.17893058212653 L 732.2222933446176 157.05692842741635 L 732.171243434565 156.9346893910855 L 732.122900107571 156.81222569693574 L 732.0772681979282 156.68954959123448 L 732.0343522687895 156.56667334149 L 731.9941566117119 156.4436092352249 L 731.9566852462277 156.32036957874723 L 731.9219419194422 156.19696669592 L 731.8899301056593 156.0734129269286 L 731.8606530060334 155.949720627047 L 731.8341135482503 155.82590216540208 L 731.8103143862337 155.70196992373684 L 731.7892578998798 155.57793629517218 L 731.7709461948197 155.4538136829676 L 731.7553811022086 155.32961449928086 L 731.742564178543 155.20535116392685 L 731.7324967055044 155.08103610313552 L 731.7251796898319 154.9566817483094 L 731.7206138632207 154.83230053478033 L 731.7187996822499 154.70790490056598" stroke-miterlimit="10" stroke-width="3.2042129550000005" stroke-dasharray=""/></g><g><g/><text fill="black" stroke="none" font-family="sans-serif" font-size="11pt" font-style="normal" font-weight="normal" text-decoration="normal" x="748.8185983993751" y="187.35221631000002" text-anchor="start" dominant-baseline="alphabetic" xml:space="preserve">DB</text></g><g><path fill="white" stroke="black" paint-order="fill stroke markers" d=" M 983.1320248581251 138.91205575499998 A 27.989742577500003 27.989742577500003 0 1 1 983.1320108632549 138.88406601708743 M 951.372619980625 110.92231317749997 L 962.681606880625 101.49815742749998 M 951.372619980625 110.92231317749997 L 962.681606880625 120.34646892749997" stroke-miterlimit="10" stroke-width="3.2042129550000005" stroke-dasharray=""/></g><g><g/><text fill="black" stroke="none" font-family="sans-serif" font-size="11pt" font-style="normal" font-weight="normal" text-decoration="normal" x="901.7780244681251" y="187.35221631000002" text-anchor="start" dominant-baseline="alphabetic" xml:space="preserve">Auth Interceptor</text></g><path fill="none" stroke="none"/><g><path fill="white" stroke="black" paint-order="fill stroke markers" d=" M 1111.6630126781251 142.11626870999999 L 1235.9281064456252 142.11626870999999 L 1235.9281064456252 193.00670975999998 L 1111.6630126781251 193.00670975999998 L 1111.6630126781251 142.11626870999999 Z" stroke-miterlimit="10" stroke-width="3.01572984" stroke-dasharray=""/></g><g><g/><text fill="black" stroke="none" font-family="sans-serif" font-size="11pt" font-style="normal" font-weight="normal" text-decoration="normal" x="1132.113430655625" y="174.15839826" text-anchor="start" dominant-baseline="alphabetic" xml:space="preserve">Chat service</text></g></g><g><g><text fill="black" stroke="none" font-family="sans-serif" font-size="11pt" font-style="normal" font-weight="normal" text-decoration="normal" x="163.43679600437497" y="247.66681311" text-anchor="start" dominant-baseline="alphabetic" xml:space="preserve">Authenticate (username, password)</text></g><g><path fill="none" stroke="black" paint-order="fill stroke markers" d=" M 84.81740175000002 255.20613771 L 463.3224150925 255.20613771" stroke-miterlimit="10" stroke-width="1.5706926250000002" stroke-dasharray=""/><g transform="translate(478.8408582275,255.20613771) translate(-478.8408582275,-255.20613771)"><path fill="black" stroke="none" paint-order="stroke fill markers" d=" M 463.1339319775 247.35267458500002 L 478.8408582275 255.20613771 L 463.1339319775 263.059600835 Z"/></g></g><g><text fill="black" stroke="none" font-family="sans-serif" font-size="11pt" font-style="normal" font-weight="normal" text-decoration="normal" x="503.9719402275" y="300.44208531000004" text-anchor="start" dominant-baseline="alphabetic" xml:space="preserve">Generate and store Refresh Token</text></g><g><path fill="none" stroke="black" paint-order="fill stroke markers" d=" M 478.8408582275 307.98140991 L 743.7188564362501 307.98140991" stroke-miterlimit="10" stroke-width="1.5706926250000002" stroke-dasharray=""/><g transform="translate(759.2372995712501,307.98140991) translate(-759.2372995712501,-307.98140991)"><path fill="black" stroke="none" paint-order="stroke fill markers" d=" M 743.5303733212501 300.127946785 L 759.2372995712501 307.98140991 L 743.5303733212501 315.83487303500004 Z"/></g></g><g><text fill="black" stroke="none" font-family="sans-serif" font-size="11pt" font-style="normal" font-weight="normal" text-decoration="normal" x="153.72121983249997" y="353.21735751000006" text-anchor="start" dominant-baseline="alphabetic" xml:space="preserve">Access Token, Refresh Token (AT, RT)</text></g><g><path fill="none" stroke="black" paint-order="fill stroke markers" d=" M 478.8408582275 360.75668211000004 L 100.33584488500001 360.75668211000004" stroke-miterlimit="10" stroke-width="1.5706926250000002" stroke-dasharray=""/><g transform="translate(84.81740175000002,360.75668211000004) translate(-84.81740175000002,-360.75668211000004)"><path fill="black" stroke="none" paint-order="stroke fill markers" d=" M 100.52432800000003 352.903218985 L 84.81740175000002 360.75668211000004 L 100.52432800000003 368.61014523500006 Z"/></g></g><g><text fill="black" stroke="none" font-family="sans-serif" font-size="11pt" font-style="normal" font-weight="normal" text-decoration="normal" x="411.60337717156256" y="405.9926297100001" text-anchor="start" dominant-baseline="alphabetic" xml:space="preserve">ProcessRequest (Access Token)</text></g><g><path fill="none" stroke="black" paint-order="fill stroke markers" d=" M 84.81740175000002 413.53195431000006 L 939.6238391456251 413.53195431000006" stroke-miterlimit="10" stroke-width="1.5706926250000002" stroke-dasharray=""/><g transform="translate(955.1422822806251,413.53195431000006) translate(-955.1422822806251,-413.53195431000006)"><path fill="black" stroke="none" paint-order="stroke fill markers" d=" M 939.435356030625 405.67849118500004 L 955.1422822806251 413.53195431000006 L 939.435356030625 421.3854174350001 Z"/></g></g><path fill="white" stroke="black" paint-order="fill stroke markers" d=" M 815.7822340712501 441.8044215600001 L 1077.53885014 441.8044215600001 L 1094.50233049 458.7679019100001 L 1094.50233049 485.1555380100001 L 815.7822340712501 485.1555380100001 L 815.7822340712501 441.8044215600001 M 1077.53885014 441.8044215600001 L 1077.53885014 458.7679019100001 L 1094.50233049 458.7679019100001" stroke-miterlimit="10" stroke-width="1.5706926250000002" stroke-dasharray=""/><g><text fill="black" stroke="none" font-family="sans-serif" font-size="11pt" font-style="normal" font-weight="normal" text-decoration="normal" x="842.1698701712501" y="468.19205766000005" text-anchor="start" dominant-baseline="alphabetic" xml:space="preserve">Validate AT with (super)secret key</text></g><g><text fill="black" stroke="none" font-family="sans-serif" font-size="11pt" font-style="normal" font-weight="normal" text-decoration="normal" x="980.2733642806251" y="530.39148561" text-anchor="start" dominant-baseline="alphabetic" xml:space="preserve">Validate AT</text></g><g><path fill="none" stroke="black" paint-order="fill stroke markers" d=" M 955.1422822806251 537.93081021 L 1030.5355282806252 537.93081021 L 1030.5355282806252 562.43361516 L 970.660725415625 562.43361516" stroke-miterlimit="10" stroke-width="1.5706926250000002" stroke-dasharray=""/><g transform="translate(955.1422822806251,562.43361516) translate(-955.1422822806251,-562.43361516)"><path fill="black" stroke="none" paint-order="stroke fill markers" d=" M 970.8492085306251 554.5801520350001 L 955.1422822806251 562.43361516 L 970.8492085306251 570.287078285 Z"/></g></g><path fill="white" stroke="black" paint-order="fill stroke markers" d=" M 876.6538161025001 641.5965234600001 L 1016.66726810875 641.5965234600001 L 1033.63074845875 658.5600038100001 L 1033.63074845875 684.9476399100001 L 876.6538161025001 684.9476399100001 L 876.6538161025001 641.5965234600001 M 1016.66726810875 641.5965234600001 L 1016.66726810875 658.5600038100001 L 1033.63074845875 658.5600038100001" stroke-miterlimit="10" stroke-width="1.5706926250000002" stroke-dasharray=""/><g><text fill="black" stroke="none" font-family="sans-serif" font-size="11pt" font-style="normal" font-weight="normal" text-decoration="normal" x="903.0414522025001" y="667.9841595600002" text-anchor="start" dominant-baseline="alphabetic" xml:space="preserve">Retrieve userID</text></g><g><g><rect fill="rgb(255,252,246)" stroke="none" x="977.4461175556252" y="713.2201071600001" width="174.04560673125" height="24.50280495"/></g><text fill="black" stroke="none" font-family="sans-serif" font-size="11pt" font-style="normal" font-weight="normal" text-decoration="normal" x="980.2733642806252" y="730.1835875100002" text-anchor="start" dominant-baseline="alphabetic" xml:space="preserve">ProcessRequest (userID)</text></g><g><path fill="none" stroke="black" paint-order="fill stroke markers" d=" M 955.1422822806251 737.7229121100002 L 1158.277116426875 737.7229121100002" stroke-miterlimit="10" stroke-width="1.5706926250000002" stroke-dasharray=""/><g transform="translate(1173.795559561875,737.7229121100002) translate(-1173.795559561875,-737.7229121100002)"><path fill="black" stroke="none" paint-order="stroke fill markers" d=" M 1158.0886333118751 729.8694489850002 L 1173.795559561875 737.7229121100002 L 1158.0886333118751 745.5763752350001 Z"/></g></g><g><g><rect fill="rgb(255,252,246)" stroke="none" x="470.45703864968755" y="816.8858204100002" width="99.04560673125" height="24.50280495"/></g><text fill="black" stroke="none" font-family="sans-serif" font-size="11pt" font-style="normal" font-weight="normal" text-decoration="normal" x="473.28428537468756" y="833.8493007600002" text-anchor="start" dominant-baseline="alphabetic" xml:space="preserve">Token expired</text></g><g><path fill="none" stroke="black" paint-order="fill stroke markers" d=" M 955.1422822806251 841.3886253600002 L 100.33584488500001 841.3886253600002" stroke-miterlimit="10" stroke-width="1.5706926250000002" stroke-dasharray=""/><g transform="translate(84.81740175000002,841.3886253600002) translate(-84.81740175000002,-841.3886253600002)"><path fill="black" stroke="none" paint-order="stroke fill markers" d=" M 100.52432800000003 833.5351622350003 L 84.81740175000002 841.3886253600002 L 100.52432800000003 849.2420884850002 Z"/></g></g><g><g><rect fill="rgb(255,252,246)" stroke="none" x="237.88005709187496" y="869.6610926100002" width="87.89814579375" height="24.50280495"/></g><text fill="black" stroke="none" font-family="sans-serif" font-size="11pt" font-style="normal" font-weight="normal" text-decoration="normal" x="240.70730381687497" y="886.6245729600003" text-anchor="start" dominant-baseline="alphabetic" xml:space="preserve">Refresh(RT)</text></g><g><path fill="none" stroke="black" paint-order="fill stroke markers" d=" M 84.81740175000002 894.1638975600002 L 463.3224150925 894.1638975600002" stroke-miterlimit="10" stroke-width="1.5706926250000002" stroke-dasharray=""/><g transform="translate(478.8408582275,894.1638975600002) translate(-478.8408582275,-894.1638975600002)"><path fill="black" stroke="none" paint-order="stroke fill markers" d=" M 463.1339319775 886.3104344350003 L 478.8408582275 894.1638975600002 L 463.1339319775 902.0173606850002 Z"/></g></g><g><g><rect fill="rgb(255,252,246)" stroke="none" x="554.10611928375" y="922.4363648100002" width="129.86591923125" height="24.50280495"/></g><text fill="black" stroke="none" font-family="sans-serif" font-size="11pt" font-style="normal" font-weight="normal" text-decoration="normal" x="556.93336600875" y="939.3998451600003" text-anchor="start" dominant-baseline="alphabetic" xml:space="preserve">Get token from DB</text></g><g><path fill="none" stroke="black" paint-order="fill stroke markers" d=" M 494.3593013625 946.9391697600003 L 743.7188564362501 946.9391697600003" stroke-miterlimit="10" stroke-width="1.5706926250000002" stroke-dasharray=""/><g transform="translate(759.2372995712501,946.9391697600003) translate(-759.2372995712501,-946.9391697600003)"><path fill="black" stroke="none" paint-order="stroke fill markers" d=" M 743.5303733212501 939.0857066350003 L 759.2372995712501 946.9391697600003 L 743.5303733212501 954.7926328850002 Z"/><g transform="translate(478.8408582275,946.9391697600003) translate(-478.8408582275,-946.9391697600003)"><path fill="black" stroke="none" paint-order="stroke fill markers" d=" M 494.5477844775 939.0857066350003 L 478.8408582275 946.9391697600003 L 494.5477844775 954.7926328850002 Z"/></g></g></g><g><g><rect fill="rgb(255,252,246)" stroke="none" x="501.1446935025" y="975.2116370100003" width="115.7082043875" height="24.50280495"/></g><text fill="black" stroke="none" font-family="sans-serif" font-size="11pt" font-style="normal" font-weight="normal" text-decoration="normal" x="503.9719402275" y="992.1751173600004" text-anchor="start" dominant-baseline="alphabetic" xml:space="preserve">Compare tokens</text></g><g><path fill="none" stroke="black" paint-order="fill stroke markers" d=" M 478.8408582275 999.7144419600003 L 554.2341042275 999.7144419600003 L 554.2341042275 1024.2172469100003 L 494.3593013625 1024.2172469100003" stroke-miterlimit="10" stroke-width="1.5706926250000002" stroke-dasharray=""/><g transform="translate(478.8408582275,1024.2172469100003) translate(-478.8408582275,-1024.2172469100003)"><path fill="black" stroke="none" paint-order="stroke fill markers" d=" M 494.5477844775 1016.3637837850004 L 478.8408582275 1024.2172469100003 L 494.5477844775 1032.0707100350003 Z"/></g></g><g><g><rect fill="rgb(255,252,246)" stroke="none" x="148.52825045124996" y="1052.4897141600004" width="266.601759075" height="24.50280495"/></g><text fill="black" stroke="none" font-family="sans-serif" font-size="11pt" font-style="normal" font-weight="normal" text-decoration="normal" x="151.35549717624997" y="1069.4531945100002" text-anchor="start" dominant-baseline="alphabetic" xml:space="preserve">New pair Access Token, Refresh Token</text></g><g><path fill="none" stroke="black" paint-order="fill stroke markers" d=" M 478.8408582275 1076.9925191100003 L 100.33584488500001 1076.9925191100003" stroke-miterlimit="10" stroke-width="1.5706926250000002" stroke-dasharray=""/><g transform="translate(84.81740175000002,1076.9925191100003) translate(-84.81740175000002,-1076.9925191100003)"><path fill="black" stroke="none" paint-order="stroke fill markers" d=" M 100.52432800000003 1069.1390559850004 L 84.81740175000002 1076.9925191100003 L 100.52432800000003 1084.8459822350003 Z"/></g></g><g><g><rect fill="rgb(255,252,246)" stroke="none" x="472.54077888406255" y="1156.1554274100004" width="94.8781262625" height="24.50280495"/></g><text fill="black" stroke="none" font-family="sans-serif" font-size="11pt" font-style="normal" font-weight="normal" text-decoration="normal" x="475.36802560906256" y="1173.1189077600002" text-anchor="start" dominant-baseline="alphabetic" xml:space="preserve">Unauthorized</text></g><g><path fill="none" stroke="black" paint-order="fill stroke markers" d=" M 955.1422822806251 1180.6582323600003 L 100.33584488500001 1180.6582323600003" stroke-miterlimit="10" stroke-width="1.5706926250000002" stroke-dasharray=""/><g transform="translate(84.81740175000002,1180.6582323600003) translate(-84.81740175000002,-1180.6582323600003)"><path fill="black" stroke="none" paint-order="stroke fill markers" d=" M 100.52432800000003 1172.8047692350003 L 84.81740175000002 1180.6582323600003 L 100.52432800000003 1188.5116954850002 Z"/></g></g><g><g/><path fill="none" stroke="black" paint-order="fill stroke markers" d=" M 18.84831150000001 590.7060824100001 L 1239.764649811875 590.7060824100001 L 1239.764649811875 1208.9306996100004 L 18.84831150000001 1208.9306996100004 L 18.84831150000001 590.7060824100001 Z" stroke-miterlimit="10" stroke-width="2.6926159285714286" stroke-dasharray=""/><path fill="#FFEFD2" stroke="black" paint-order="fill stroke markers" d=" M 18.84831150000001 590.7060824100001 L 18.84831150000001 613.3240562100001 L 70.54884075000001 613.3240562100001 L 81.85782765000002 602.0150693100002 L 81.85782765000002 590.7060824100001 L 18.84831150000001 590.7060824100001" stroke-miterlimit="10" stroke-width="2.6926159285714286" stroke-dasharray=""/><text fill="black" stroke="none" font-family="sans-serif" font-size="8.8pt" font-style="normal" font-weight="bold" text-decoration="normal" x="37.69662300000001" y="605.7847316100001" text-anchor="start" dominant-baseline="alphabetic" xml:space="preserve">alt</text><text fill="black" stroke="none" font-family="sans-serif" font-size="8.8pt" font-style="normal" font-weight="bold" text-decoration="normal" x="100.70613915000001" y="605.7847316100001" text-anchor="start" dominant-baseline="alphabetic" xml:space="preserve">[validation succeeded]</text><g><path fill="none" stroke="black" paint-order="fill stroke markers" d=" M 18.84831150000001 765.9953793600002 L 1239.764649811875 765.9953793600002" stroke-miterlimit="10" stroke-width="2.6926159285714286" stroke-dasharray="4.712077875"/></g><g/><text fill="black" stroke="none" font-family="sans-serif" font-size="8.8pt" font-style="normal" font-weight="bold" text-decoration="normal" x="100.70613915000001" y="781.0740285600002" text-anchor="start" dominant-baseline="alphabetic" xml:space="preserve">[token expired]</text><g><path fill="none" stroke="black" paint-order="fill stroke markers" d=" M 18.84831150000001 1105.2649863600002 L 1239.764649811875 1105.2649863600002" stroke-miterlimit="10" stroke-width="2.6926159285714286" stroke-dasharray="4.712077875"/></g><g/><text fill="black" stroke="none" font-family="sans-serif" font-size="8.8pt" font-style="normal" font-weight="bold" text-decoration="normal" x="100.70613915000001" y="1120.3436355600002" text-anchor="start" dominant-baseline="alphabetic" xml:space="preserve">[invalid token]</text></g><g/><g/></g><g/><g/><g/><g/><g/></g></svg>